HIERARCHY
ROOT Hips
{
	OFFSET 0.000000 0.000000 0.000000 
	CHANNELS 6 Xposition Yposition Zposition Yrotation Zrotation Xrotation 
	JOINT Lumbar
	{
		OFFSET 0.000000 0.000000 0.000000 
		CHANNELS 3 Zrotation Xrotation Yrotation
		JOINT Neck
		{
			OFFSET 0.000000 0.445665 0.000000 
			CHANNELS 3 Zrotation Xrotation Yrotation
			End Site
			{
				OFFSET 0.000000 0.227535 0.000000 
			}
		}
		JOINT RightShoulder
		{
			OFFSET 0.019635 0.377685 0.194865 
			CHANNELS 3 Zrotation Xrotation Yrotation
			JOINT RightElbow
			{
				OFFSET 0.000000 -0.243375 0.000000 
				CHANNELS 2 Zrotation Yrotation
				JOINT RightWrist
				{
					OFFSET 0.000000 -0.264825 0.000000 
					CHANNELS 2 Zrotation Xrotation
					End Site
					{
						OFFSET 0.006600 -0.176220 0.000990 
					}
				}
			}
		}
		JOINT LeftShoulder
		{
			OFFSET 0.019635 0.377685 -0.194865 
			CHANNELS 3 Zrotation Xrotation Yrotation
			JOINT LeftElbow
			{
				OFFSET 0.000000 -0.243375 0.000000 
				CHANNELS 2 Zrotation Yrotation
				JOINT LeftWrist
				{
					OFFSET 0.000000 -0.264825 0.000000 
					CHANNELS 2 Zrotation Xrotation
					End Site
					{
						OFFSET 0.006600 -0.176220 -0.000990 
					}
				}
			}
		}
	}
	JOINT RightHip
	{
		OFFSET 0.052140 -0.069960 0.075570 
		CHANNELS 3 Zrotation Xrotation Yrotation
		JOINT RightKnee
		{
			OFFSET 0.000000 -0.402270 0.000000 
			CHANNELS 1 Zrotation
			JOINT RightAnkle
			{
				OFFSET 0.000000 -0.404085 0.000000 
				CHANNELS 3 Zrotation Xrotation Yrotation
				End Site
				{
					OFFSET 0.204105 -0.089430 0.008415 
				}
			}
		}
	}
	JOINT LeftHip
	{
		OFFSET 0.052140 -0.069960 -0.075570 
		CHANNELS 3 Zrotation Xrotation Yrotation
		JOINT LeftKnee
		{
			OFFSET 0.000000 -0.402270 0.000000 
			CHANNELS 1 Zrotation
			JOINT LeftAnkle
			{
				OFFSET 0.000000 -0.404085 0.000000 
				CHANNELS 3 Zrotation Xrotation Yrotation
				End Site
				{
					OFFSET 0.204105 -0.089430 -0.008415 
				}
			}
		}
	}
}
MOTION
Frames: 34
Frame Time: 0.02
-1e-05 0.95578 0 245.12372 0 -3.70863 5.83372 6.17075 -1.60496 -54.84302 1.57164 7.99438 65.45978 -26.64487 4.11256 16.33109 79.69358 1.44994 -8.19395 40.10777 6.34644 -0.69063 5.78691 -87.89791 1.00237 -4.27145 -3.69942 8.66863 -9.31799 -5.28695 -9.1487 -1.97375 -7.20484 11.98597 9.47943 -7.40093 -18.87781 -2.76757 1.80609 1.4869
0.00241 0.95611 -0.00325 245.80328 0 -3.67096 5.75889 6.18039 -1.70527 -54.70289 1.67122 8.04885 64.51564 -26.16041 3.48708 15.6177 79.80055 1.52705 -7.52131 40.13116 6.37669 -0.66582 5.78638 -87.37241 0.90513 -4.12783 -3.45657 8.69584 -8.34343 -5.38845 -9.30726 -1.86424 -8.75811 11.73225 9.72161 -7.87837 -20.19529 -2.33084 2.09063 2.7318
0.00483 0.95643 -0.00647 246.48055 0 -3.63412 5.68493 6.19005 -1.80623 -54.56279 1.76952 8.10065 63.57213 -25.67496 2.86235 14.90589 79.90906 1.60332 -6.85057 40.15726 6.41043 -0.64176 5.78726 -86.8497 0.80744 -3.98259 -3.21529 8.7225 -7.38369 -5.48915 -9.46276 -1.75615 -10.29448 11.47637 9.96492 -8.34069 -21.5014 -1.89713 2.37352 3.97197
0.00726 0.95675 -0.00966 247.15412 0 -3.59976 5.61345 6.19978 -1.91024 -54.4215 1.86479 8.1459 62.62511 -25.18458 2.23399 14.1938 80.02648 1.67795 -6.18015 40.19147 6.45405 -0.61493 5.7906 -86.33427 0.70774 -3.83065 -2.97802 8.7472 -6.48538 -5.58749 -9.60653 -1.65348 -11.76604 11.21285 10.21524 -8.76751 -22.77988 -1.46783 2.65355 5.21083
0.00964 0.95711 -0.01307 247.84589 0 -3.5517 5.5285 6.20905 -1.99744 -54.28659 1.9775 8.23016 61.70047 -24.72483 1.62415 13.48361 80.09877 1.76245 -5.50713 40.17911 6.44008 -0.59602 5.77705 -85.78178 0.61956 -3.71566 -2.71962 8.78226 -5.27551 -5.69815 -9.81115 -1.52311 -13.56619 10.99397 10.42863 -9.40679 -24.21081 -1.01106 2.94995 6.46323
0.01212 0.95736 -0.016 248.49941 0 -3.53305 5.47236 6.21931 -2.12055 -54.13827 2.05227 8.2289 60.72689 -24.19766 0.97627 12.76984 80.26504 1.8252 -4.8409 40.26771 6.55148 -0.56497 5.80187 -85.30721 0.5065 -3.52164 -2.50609 8.7954 -4.71641 -5.78277 -9.88776 -1.45077 -14.67953 10.67804 10.71976 -9.57953 -25.3137 -0.61562 3.2106 7.68123
0.0148 0.95728 -0.01768 249.05411 0 -3.595 5.495 6.23257 -2.34631 -53.94798 2.02805 8.00713 59.60752 -23.48892 0.19901 12.02827 80.71694 1.83409 -4.17042 40.62777 6.99523 -0.46056 5.91558 -85.05102 0.32411 -3.10392 -2.41576 8.74557 -6.0892 -5.7943 -9.593 -1.54858 -13.76903 10.09942 11.24208 -8.56227 -25.542 -0.36193 3.383 8.8732
0.0176 0.95708 -0.01886 249.56971 0 -3.68689 5.54691 6.24691 -2.60797 -53.74494 1.96431 7.69582 58.43981 -22.71064 -0.61149 11.28575 81.25951 1.81991 -3.51049 41.0917 7.5686 -0.35163 6.0715 -84.87273 0.11647 -2.60687 -2.3708 8.67379 -8.09862 -5.77982 -9.17234 -1.70339 -12.18483 9.42134 11.83965 -7.05651 -25.43281 -0.17518 3.51756 10.01935
0.02038 0.95694 -0.02023 250.09926 0 -3.76543 5.58595 6.26049 -2.85113 -53.55062 1.91502 7.41509 57.29922 -21.96003 -1.394 10.55412 81.74409 1.81221 -2.8596 41.51307 8.09228 -0.26989 6.21915 -84.65627 -0.07943 -2.14926 -2.30539 8.61382 -9.72722 -5.77801 -8.82006 -1.82567 -10.99385 8.78434 12.39377 -5.70661 -25.45894 0.02484 3.66285 11.14271
0.02301 0.95678 -0.02177 250.64423 0 -3.84254 5.62311 6.2748 -3.10323 -53.34363 1.88108 7.1774 56.13554 -21.22538 -2.23728 9.77766 82.29906 1.8213 -2.14958 41.91395 8.57699 -0.07989 6.31995 -84.45107 -0.27628 -1.67779 -2.23916 8.54698 -11.72999 -5.77246 -8.4192 -1.97544 -9.44664 8.16418 12.99012 -4.62885 -25.56453 0.29814 3.83544 12.4488
0.02599 0.95664 -0.02282 251.14856 0 -3.93017 5.67118 6.28837 -3.34554 -53.16046 1.80507 6.82837 55.01036 -20.44188 -2.9537 9.09534 82.72942 1.7901 -1.56625 42.38325 9.17365 -0.11705 6.52934 -84.24149 -0.47731 -1.21586 -2.18559 8.48814 -13.1196 -5.76872 -8.0915 -2.08209 -8.4674 7.4861 13.51231 -2.87721 -25.42026 0.40175 3.94211 13.36486
0.02982 0.95663 -0.02269 251.54329 0 -4.03597 5.74176 6.29504 -3.54886 -53.04203 1.62857 6.19816 53.98689 -19.53331 -3.38061 8.66437 82.78968 1.65193 -1.32123 43.00701 10.04717 -0.75946 7.01999 -83.99603 -0.68264 -0.80338 -2.15419 8.46621 -12.52971 -5.77475 -7.98035 -2.05043 -9.34319 6.66592 13.84697 0.69008 -24.70642 0.06452 3.87707 13.20428
0.03402 0.95665 -0.02206 251.89929 0 -4.15202 5.82233 6.30174 -3.74119 -52.9487 1.40997 5.4588 53.00716 -18.5799 -3.66486 8.32991 82.72219 1.47422 -1.20509 43.69763 11.02833 -1.63508 7.62003 -83.74463 -0.89155 -0.40237 -2.13427 8.45137 -11.32324 -5.7838 -7.95014 -1.97429 -10.79253 5.79243 14.09805 4.90249 -23.74685 -0.44229 3.74699 12.65554
0.03812 0.95666 -0.02163 252.27825 0 -4.26564 5.89873 6.31152 -3.94121 -52.84674 1.20668 4.76571 52.01777 -17.65099 -3.9705 7.95687 82.71562 1.31561 -1.03568 44.36376 11.96142 -2.41888 8.17539 -83.49866 -1.09948 0.0061 -2.11024 8.42702 -10.48722 -5.79254 -7.89364 -1.92213 -11.89749 4.94721 14.36361 8.77372 -22.87361 -0.88019 3.64578 12.29078
0.04194 0.95667 -0.02133 252.63528 0 -4.3707 5.97487 6.30851 -4.13303 -52.73297 1.01808 4.08093 50.98235 -16.69985 -4.46477 7.561 82.69986 1.15172 -0.84391 45.00913 12.89815 -3.14212 8.7109 -83.2427 -1.3054 0.40714 -2.08322 8.42822 -9.30048 -5.79591 -7.78873 -1.85648 -13.3264 4.08012 14.72975 12.87412 -22.09103 -1.29013 3.54541 11.88953
0.04644 0.95668 -0.02064 253.02668 0 -4.49587 6.05321 6.33185 -4.33641 -52.64945 0.78949 3.35739 50.05534 -15.78829 -4.52675 7.23624 82.67202 0.98938 -0.72964 45.71162 13.84777 -4.04771 9.31327 -83.0066 -1.51627 0.82078 -2.06442 8.37847 -8.67942 -5.81148 -7.80514 -1.80709 -14.23311 3.24887 14.8672 16.63212 -21.0714 -1.79251 3.42928 11.4763
0.05272 0.95665 -0.01898 253.54476 0 -4.67195 6.1378 6.43017 -4.59522 -52.64766 0.46035 2.52574 49.40531 -14.9718 -3.4743 7.07947 82.6387 0.84407 -0.79428 46.55976 14.8348 -5.39163 10.07212 -82.81402 -1.73754 1.26392 -2.06654 8.18354 -9.85513 -5.86066 -8.14061 -1.81801 -13.49545 2.5164 14.37878 19.38751 -19.41049 -2.55271 3.2777 11.0936
0.05968 0.95661 -0.01694 254.09453 0 -4.86806 6.22356 6.55445 -4.86196 -52.67477 0.0928 1.66456 48.86598 -14.20197 -1.9844 6.99215 82.59757 0.70127 -0.93327 47.46114 15.82483 -6.91133 10.89415 -82.64374 -1.96387 1.72106 -2.07603 7.9375 -11.60248 -5.9221 -8.5952 -1.84579 -12.22735 1.82513 13.66542 21.75557 -17.53065 -3.39145 3.11421 10.71784
0.06634 0.95657 -0.01506 254.61572 0 -5.05636 6.30695 6.66554 -5.11126 -52.68576 -0.25678 0.83548 48.283 -13.42738 -0.66403 6.87576 82.56201 0.55537 -1.04025 48.33556 16.79475 -8.35747 11.6884 -82.47109 -2.18951 2.17692 -2.08139 7.71702 -13.02999 -5.97751 -8.9935 -1.86247 -11.24634 1.12375 13.06446 24.23145 -15.78251 -4.16513 2.96151 10.3603
0.07294 0.95656 -0.01321 255.1965 0 -5.24 6.39866 6.78304 -5.41867 -52.70991 -0.6104 -0.07662 47.6706 -12.58083 0.54241 6.75093 82.51439 0.41616 -1.14344 49.22652 17.84899 -9.79011 12.48409 -82.26501 -2.40906 2.61173 -2.09088 7.48779 -14.6902 -6.03463 -9.40404 -1.89172 -10.09099 0.38272 12.41795 27.0149 -13.88664 -5.06909 2.7837 9.90094
0.07984 0.95648 -0.01122 255.65979 0 -5.43743 6.47296 6.89269 -5.60702 -52.71358 -0.96373 -0.82101 47.1487 -11.89701 2.08226 6.66052 82.49062 0.26436 -1.27149 50.0917 18.72525 -11.28323 13.28844 -82.13455 -2.64172 3.09291 -2.09287 7.26348 -16.00909 -6.09149 -9.8158 -1.8999 -9.1649 -0.26351 11.81365 29.06127 -12.25349 -5.7177 2.65631 9.65789
0.0873 0.95624 -0.00896 255.80274 0 -5.67242 6.50051 6.98008 -5.46499 -52.65008 -1.31054 -1.09711 46.82083 -11.64214 4.48656 6.63387 82.54459 0.07551 -1.44118 50.89827 19.12216 -12.95216 14.11559 -82.20158 -2.91458 3.70548 -2.07581 7.07426 -16.25004 -6.14168 -10.2058 -1.84103 -9.00448 -0.67189 11.38394 29.12765 -11.36952 -5.6442 2.67071 10.03391
0.09504 0.95593 -0.00658 255.82417 0 -5.91966 6.51004 7.05759 -5.20284 -52.56551 -1.6549 -1.20229 46.58612 -11.55166 7.20119 6.64161 82.6218 -0.12548 -1.6344 51.67168 19.33671 -14.66401 14.94514 -82.34465 -3.19876 4.36223 -2.04984 6.88994 -16.1298 -6.19231 -10.59134 -1.7614 -9.08984 -0.98322 11.00432 28.46936 -10.76469 -5.30958 2.73669 10.62512
0.1027 0.95565 -0.00424 255.8939 0 -6.15841 6.52689 7.13586 -4.99557 -52.49279 -1.99768 -1.38404 46.32648 -11.39168 9.73957 6.64253 82.68224 -0.31976 -1.82192 52.44343 19.62597 -16.32241 15.76471 -82.45731 -3.47518 4.99537 -2.0261 6.69758 -16.17524 -6.24392 -10.97645 -1.69464 -9.0579 -1.32982 10.60023 28.16582 -10.05252 -5.09236 2.77956 11.10416
0.11018 0.95537 -0.00194 255.99466 0 -6.41041 6.54795 7.23084 -4.78749 -52.41151 -2.35292 -1.57231 45.99418 -11.21007 12.44162 6.60886 82.76779 -0.51949 -1.9908 53.28874 19.9506 -18.1347 16.62771 -82.55498 -3.76567 5.64714 -2.01191 6.52842 -16.23437 -6.28857 -11.3779 -1.61417 -9.03112 -1.71305 10.19552 27.74322 -9.24881 -4.88395 2.82038 11.6432
0.11809 0.95507 0.00046 256.00061 0 -6.63723 6.55531 7.28824 -4.5523 -52.34267 -2.68146 -1.70507 45.83774 -11.1135 14.87123 6.65436 82.80762 -0.7102 -2.2034 53.97095 20.15731 -19.62895 17.39545 -82.69946 -4.0259 6.26637 -1.97361 6.31221 -16.17107 -6.35069 -11.74049 -1.5568 -9.05925 -1.99656 9.80685 27.39977 -8.70663 -4.59337 2.87812 12.10917
0.12706 0.95474 0.00316 255.78265 0 -6.79338 6.53492 7.24465 -4.27302 -52.31347 -2.93244 -1.73264 46.11137 -11.19986 16.46567 6.91034 82.70795 -0.87812 -2.52776 54.22136 20.08894 -20.27992 17.93706 -82.97334 -4.23132 6.81876 -1.88763 5.97026 -15.86203 -6.43605 -12.01387 -1.57134 -9.17712 -2.03609 9.45227 27.46712 -8.8061 -4.14531 2.96833 12.31386
0.13646 0.95439 0.00597 255.47215 0 -6.92337 6.50042 7.16322 -3.97042 -52.29746 -3.15642 -1.70808 46.56477 -11.36922 17.77407 7.24421 82.5631 -1.03578 -2.89537 54.30645 19.90627 -20.60061 18.37489 -83.28822 -4.40066 7.33011 -1.77432 5.58025 -15.43831 -6.5442 -12.2437 -1.60939 -9.3449 -1.97732 9.11304 27.63805 -9.16273 -3.62205 3.07422 12.43879
0.14569 0.95404 0.00871 255.19804 0 -7.06394 6.46849 7.09895 -3.67739 -52.27507 -3.39653 -1.70418 46.95617 -11.50659 19.21609 7.54214 82.4438 -1.19458 -3.24509 54.46021 19.77302 -21.04091 18.83598 -83.57175 -4.56499 7.83848 -1.66277 5.20872 -15.06217 -6.65737 -12.48272 -1.63436 -9.49331 -1.95885 8.76639 27.75391 -9.41055 -3.12926 3.17401 12.60484
0.15485 0.95374 0.01151 254.94217 0 -7.21024 6.45161 7.03515 -3.38403 -52.25316 -3.62371 -1.71053 47.26585 -11.62088 20.6549 7.84439 82.3035 -1.36793 -3.58884 54.64052 19.64727 -21.60872 19.40019 -83.9111 -4.81732 8.44128 -1.59675 4.85068 -14.69451 -6.70304 -12.76972 -1.66791 -9.63511 -1.95577 8.42254 27.87879 -9.63323 -2.64333 3.27102 12.75814
0.16424 0.95332 0.01421 254.62976 0 -7.33855 6.40093 6.9607 -3.08799 -52.2342 -3.86714 -1.68111 47.78958 -11.80666 22.02712 8.15469 82.19668 -1.50932 -3.95421 54.72618 19.4771 -21.83547 19.72232 -84.14359 -4.88109 8.83511 -1.4285 4.45411 -14.28462 -6.89798 -12.94234 -1.69046 -9.80046 -1.89812 8.07669 28.01799 -9.96666 -2.12829 3.3772 12.91585
0.17422 0.95262 0.01656 254.16992 0 -7.42074 6.25507 6.87309 -2.78612 -52.21561 -4.1984 -1.60257 48.83887 -12.11906 23.29267 8.47624 82.18671 -1.55676 -4.37427 54.59534 19.24706 -21.16623 19.42308 -84.06436 -4.40301 8.67855 -0.99349 3.95494 -13.803 -7.47143 -12.8463 -1.66794 -10.00911 -1.71847 7.71488 28.18269 -10.53318 -1.55608 3.50175 13.10718
0.18441 0.9518 0.01881 253.66063 0 -7.4863 6.07696 6.77485 -2.48406 -52.20054 -4.53988 -1.48357 50.10039 -12.50939 24.49741 8.80146 82.21307 -1.57372 -4.81285 54.37439 18.97042 -20.16883 18.87966 -83.87674 -3.74183 8.31007 -0.45503 3.42074 -13.28088 -8.1993 -12.63075 -1.63515 -10.24016 -1.48728 7.35165 28.35911 -11.20201 -0.95808 3.63516 13.30397
0.19448 0.95102 0.02113 253.1824 0 -7.56113 5.91692 6.67687 -2.18504 -52.18684 -4.85325 -1.36004 51.27906 -12.89598 25.72449 9.11955 82.22713 -1.61015 -5.23988 54.19178 18.69354 -19.34771 18.43382 -83.74303 -3.18426 8.02708 0.04195 2.90696 -12.76872 -8.87518 -12.44479 -1.61322 -10.46627 -1.27669 6.99309 28.5273 -11.82998 -0.3694 3.76648 13.49621
